<?xml version="1.0" encoding="UTF-8"?>
<svg id="Layer_1" data-name="Layer 1" xmlns="http://www.w3.org/2000/svg" version="1.1" viewBox="30 30 185 37">
  <defs>
    <style>
      .cls-1, .cls-2 {
        stroke: #fff;
        stroke-miterlimit: 5.7;
        stroke-width: .5px;
      }

      .cls-1, .cls-3 {
        fill: #fff;
      }

      .cls-4 {
        isolation: isolate;
      }

      .cls-2 {
        fill: none;
      }

      .cls-3, .cls-5 {
        stroke-width: 0px;
      }

      .cls-5 {
        fill: #efeff0;
      }
    </style>
  </defs>
  <path class="cls-3" d="M28.5,8.2c-1.4-.4-2.9-.6-4.4-.6-10.7,0-19.3,10.6-19.3,10.6,0,0,2.8,3.5,7.2,6.5L28.5,8.2h0ZM36.1,11.7l-16.5,16.5c1.4.4,2.9.6,4.4.6,10.7,0,19.3-10.6,19.3-10.6,0,0-2.8-3.5-7.2-6.5"/>
  <g class="cls-4">
    <g class="cls-4">
      <g class="cls-4">
        <g class="cls-4">
          <path class="cls-5" d="M27.1,15.5c-.1-.8-.4-1.5-.7-2s-.7-.9-1.2-1.2c-.5-.3-1.1-.4-1.7-.4-.6,0-1.1.2-1.6.5-.5.3-.7.8-.7,1.3s.1.8.4,1.1c.2.3.6.6,1.1.9.5.3,1.2.6,1.9.9.5.2,1.1.5,1.7.7.6.3,1.1.6,1.6,1s.9.8,1.2,1.4c.3.5.4,1.1.4,1.8s-.2,1.6-.7,2.2c-.5.6-1.1,1.2-1.9,1.5-.8.4-1.8.5-2.9.5s-1.2,0-1.8-.3-1.3-.4-1.9-.8v.9c0,0-1.6,0-1.6,0v-5h1.4c.2,1.2.7,2.1,1.4,2.7.7.6,1.6.9,2.6.9s1,0,1.3-.3c.4-.2.7-.4.9-.7.2-.3.3-.6.3-1s-.2-.9-.5-1.2c-.3-.3-.8-.6-1.3-.8-.5-.2-1-.4-1.6-.7-.7-.3-1.3-.6-1.9-.9-.6-.3-1.1-.7-1.5-1.1-.4-.4-.8-.9-1-1.4-.2-.5-.4-1.1-.4-1.8s0-.9.3-1.4.4-.9.8-1.3c.4-.4.9-.7,1.5-1,.6-.3,1.4-.4,2.4-.4s1.2,0,1.9.3c.7.2,1.2.4,1.7.8v-.9c0,0,1.6,0,1.6,0v4.9h-1.4Z"/>
        </g>
      </g>
    </g>
  </g>
  <path class="cls-3" d="M26.9,9.8l-11.1,11.1c-.3-.9-.4-1.8-.4-2.8,0-4.9,3.9-8.8,8.8-8.8s1.9.2,2.8.4"/>
  <path class="cls-3" d="M32.9,18.2c0,4.9-3.9,8.8-8.8,8.8s-1.9-.2-2.8-.4l11.1-11.1c.3.9.4,1.8.4,2.8"/>
  <path class="cls-1" d="M5.9,30.8L32.3,4.4"/>
  <path class="cls-2" d="M15.7,32.2L42.4,5.6"/>
  <g class="cls-4">
    <g class="cls-4">
      <g class="cls-4">
        <path class="cls-3" d="M52.5,17.8h4.4v1.5h-4.4v4.1h-1.9v-9.7h6.8v1.5h-4.9v2.5Z"/>
        <path class="cls-3" d="M64.4,19.5c0,.4,0,.7,0,1.1-.1,1.6-1.2,3-4,3s-3.8-1.4-4-3c0-.4,0-.7,0-1.1v-5.7h1.9v5.9c0,.3,0,.5,0,.7,0,1.1.8,1.8,2,1.8s1.9-.7,2-1.8c0-.2,0-.4,0-.7v-5.9h1.9v5.7Z"/>
        <path class="cls-3" d="M69.9,23.4l-4-7.3c0,1.1,0,2.2,0,3v4.4h-1.9v-9.7h2.6l4.1,7.5c0-1,0-2.2,0-3v-4.4h1.9v9.7s-2.6,0-2.6,0Z"/>
        <path class="cls-3" d="M81,18.4c0,3-1.8,4.6-4,4.9-.5,0-.7,0-1.2,0h-3.3v-9.7h3.3c.5,0,.7,0,1.2,0,2.2.3,4,1.7,4,4.7ZM78.9,18.5c0-1.9-.9-3-2.4-3.2-.3,0-.6,0-1,0h-1.2v6.6h1.1c.4,0,.7,0,1,0,1.4-.2,2.4-1.4,2.4-3.4Z"/>
        <path class="cls-3" d="M87.3,23.4h-7v-9.7h6.8v1.5h-4.9v2.5h4.6v1.5h-4.6v2.5h5v1.5Z"/>
        <path class="cls-3" d="M88.7,20.5l-1,2.9h-2.1l3.5-9.7h2.4l3.4,9.7h-2.1l-1-2.9h-3.2ZM89.2,19h2.3l-1.1-3.6-1.1,3.6Z"/>
        <path class="cls-3" d="M102.4,18.4c0,3-1.8,4.6-4,4.9-.5,0-.7,0-1.2,0h-3.3v-9.7h3.3c.5,0,.7,0,1.2,0,2.2.3,4,1.7,4,4.7ZM100.4,18.5c0-1.9-.9-3-2.4-3.2-.3,0-.6,0-1,0h-1.2v6.6h1.1c.4,0,.7,0,1,0,1.4-.2,2.4-1.4,2.4-3.4Z"/>
      </g>
    </g>
    <g class="cls-4">
      <g class="cls-4">
        <path class="cls-3" d="M117.2,23.4h-1.9v-4.5c0-1,0-2.3,0-3.3-.2,1-.6,2.3-.9,3.3l-1.4,4.5h-2.1l-1.4-4.5c-.3-1-.6-2.3-.9-3.3,0,1,0,2.3,0,3.3v4.5h-1.9v-9.7h3.1l2.2,7.9,2.2-7.9h3v9.7Z"/>
        <path class="cls-3" d="M121.4,20.5l-1,2.9h-2.1l3.5-9.7h2.4l3.4,9.7h-2.1l-1-2.9h-3.2ZM121.9,19h2.3l-1.1-3.6-1.1,3.6Z"/>
        <path class="cls-3" d="M135.5,16.6h-2c-.1-1-.7-1.6-1.7-1.6s-1.4.4-1.4,1.1.5,1.2,2.1,1.6c2.1.5,3.1,1.5,3.1,3s-1.7,2.9-3.6,2.9-3.8-1-4-3.1h2c.2,1.1,1,1.6,2,1.6s1.6-.5,1.6-1.2-.5-1.3-1.9-1.6c-2-.5-3.2-1.2-3.2-2.9s1.6-2.8,3.5-2.8,3.4,1.3,3.6,3Z"/>
        <path class="cls-3" d="M141.5,15.2v8.2h-1.9v-8.2h-3.3v-1.5h8.5v1.5h-3.3Z"/>
        <path class="cls-3" d="M152.9,23.4h-7v-9.7h6.8v1.5h-4.9v2.5h4.6v1.5h-4.6v2.5h5v1.5Z"/>
        <path class="cls-3" d="M162.2,23.4h-2.1c-.2-.7-.4-1.2-.5-2.2-.1-1-.5-1.7-1.3-1.7-.3,0-.5,0-.8,0h-1.1v3.9h-1.9v-9.7h3.5c.6,0,.9,0,1.4,0,1.4.2,2.5.9,2.5,2.6s-.7,2-1.9,2.4c1,.4,1.3,1.2,1.4,2.2.1,1.2.3,1.9.7,2.4ZM157.8,18.1c.3,0,.6,0,.8,0,.8,0,1.4-.4,1.4-1.4s-.5-1.3-1.3-1.4c-.2,0-.5,0-.8,0h-1.4v2.8h1.3Z"/>
        <path class="cls-3" d="M170.5,16.6h-2c-.1-1-.7-1.6-1.7-1.6s-1.4.4-1.4,1.1.5,1.2,2.1,1.6c2.1.5,3.1,1.5,3.1,3s-1.7,2.9-3.6,2.9-3.8-1-4-3.1h2c.2,1.1,1,1.6,2,1.6s1.6-.5,1.6-1.2-.5-1.3-1.9-1.6c-2-.5-3.2-1.2-3.2-2.9s1.6-2.8,3.5-2.8,3.4,1.3,3.6,3Z"/>
      </g>
    </g>
  </g>
</svg>