<?xml version="1.0" encoding="UTF-8"?>
<svg id="Layer_1" data-name="Layer 1" xmlns="http://www.w3.org/2000/svg" version="1.1" viewBox="0 0 185 37">
  <defs>
    <style>
      .cls-1, .cls-2, .cls-3, .cls-4 {
        fill: #fff;
      }

      .cls-1, .cls-5 {
        stroke: #fff;
        stroke-miterlimit: 5.7;
        stroke-width: .5px;
      }

      .cls-2 {
        letter-spacing: 0em;
      }

      .cls-2, .cls-6, .cls-3, .cls-7 {
        isolation: isolate;
      }

      .cls-2, .cls-3 {
        font-family: Aileron-Bold, Aileron;
        font-size: 14px;
      }

      .cls-2, .cls-3, .cls-7 {
        font-weight: 700;
      }

      .cls-5 {
        fill: none;
      }

      .cls-4 {
        stroke-width: 0px;
      }

      .cls-7 {
        fill: #efeff0;
        font-family: Lora-Bold, Lora;
        font-size: 21.2px;
      }
    </style>
  </defs>
  <path class="cls-4" d="M28.5,8.2c-1.4-.4-2.9-.6-4.4-.6-10.7,0-19.3,10.6-19.3,10.6,0,0,2.8,3.5,7.2,6.5L28.5,8.2h0ZM36.1,11.7l-16.5,16.5c1.4.4,2.9.6,4.4.6,10.7,0,19.3-10.6,19.3-10.6,0,0-2.8-3.5-7.2-6.5"/>
  <g class="cls-6">
    <g class="cls-6">
      <text class="cls-7" transform="translate(17.5 25.6)"><tspan x="0" y="0">S</tspan></text>
    </g>
  </g>
  <path class="cls-4" d="M26.9,9.8l-11.1,11.1c-.3-.9-.4-1.8-.4-2.8,0-4.9,3.9-8.8,8.8-8.8s1.9.2,2.8.4"/>
  <path class="cls-4" d="M32.9,18.2c0,4.9-3.9,8.8-8.8,8.8s-1.9-.2-2.8-.4l11.1-11.1c.3.9.4,1.8.4,2.8"/>
  <path class="cls-1" d="M5.9,30.8L32.3,4.4"/>
  <path class="cls-5" d="M15.7,32.2L42.4,5.6"/>
  <g class="cls-6">
    <text class="cls-2" transform="translate(49.3 23.4)"><tspan x="0" y="0" xml:space="preserve">FUNDEAD            </tspan></text>
    <text class="cls-3" transform="translate(110.4 23.4)"><tspan x="0" y="0">MASTERS</tspan></text>
  </g>
</svg>