<?xml version="1.0" encoding="UTF-8"?>
<!-- Generated by Pixelmator Pro 3.6.4 -->
<svg width="185" height="37" viewBox="0 0 185 37" xmlns="http://www.w3.org/2000/svg">
    <path id="Path" fill="#ffffff" stroke="none" d="M 28.5 8.200001 C 27.1 7.799999 25.6 7.6 24.1 7.6 C 13.4 7.6 4.8 18.200001 4.8 18.200001 C 4.8 18.200001 7.6 21.700001 12 24.700001 L 28.5 8.200001 L 28.5 8.200001 Z M 36.099998 11.700001 L 19.6 28.200001 C 21 28.6 22.5 28.799999 24 28.799999 C 34.700001 28.799999 43.299999 18.200001 43.299999 18.200001 C 43.299999 18.200001 40.5 14.700001 36.099998 11.700001"/>
    <g id="Group">
        <g id="g1">
            <g id="g2">
                <g id="g3">
                    <path id="path1" fill="#efeff0" stroke="none" d="M 27.1 15.5 C 27 14.700001 26.700001 14 26.4 13.5 C 26.1 13 25.700001 12.6 25.200001 12.299999 C 24.700001 12 24.1 11.9 23.5 11.9 C 22.9 11.9 22.4 12.1 21.9 12.4 C 21.4 12.700001 21.200001 13.200001 21.200001 13.700001 C 21.200001 14.200001 21.299999 14.5 21.6 14.799999 C 21.799999 15.1 22.200001 15.4 22.700001 15.700001 C 23.200001 16 23.9 16.299999 24.6 16.6 C 25.1 16.799999 25.700001 17.1 26.299999 17.299999 C 26.9 17.6 27.4 17.9 27.9 18.299999 C 28.4 18.700001 28.799999 19.1 29.1 19.700001 C 29.4 20.200001 29.5 20.799999 29.5 21.5 C 29.5 22.200001 29.299999 23.1 28.799999 23.700001 C 28.299999 24.299999 27.700001 24.9 26.9 25.200001 C 26.1 25.6 25.1 25.700001 24 25.700001 C 22.9 25.700001 22.799999 25.700001 22.200001 25.4 C 21.6 25.1 20.9 25 20.299999 24.6 L 20.299999 25.5 C 20.299999 25.5 18.700001 25.5 18.700001 25.5 L 18.700001 20.5 L 20.1 20.5 C 20.299999 21.700001 20.799999 22.6 21.5 23.200001 C 22.200001 23.799999 23.1 24.1 24.1 24.1 C 25.1 24.1 25.1 24.1 25.4 23.799999 C 25.799999 23.6 26.1 23.4 26.299999 23.1 C 26.5 22.799999 26.6 22.5 26.6 22.1 C 26.6 21.700001 26.4 21.200001 26.1 20.9 C 25.799999 20.6 25.299999 20.299999 24.799999 20.1 C 24.299999 19.9 23.799999 19.700001 23.200001 19.4 C 22.5 19.1 21.9 18.799999 21.299999 18.5 C 20.700001 18.200001 20.200001 17.799999 19.799999 17.4 C 19.4 17 19 16.5 18.799999 16 C 18.6 15.5 18.4 14.9 18.4 14.200001 C 18.4 13.5 18.4 13.299999 18.700001 12.799999 C 19 12.299999 19.1 11.9 19.5 11.5 C 19.9 11.1 20.4 10.799999 21 10.5 C 21.6 10.200001 22.4 10.1 23.4 10.1 C 24.4 10.1 24.6 10.1 25.299999 10.4 C 26 10.6 26.5 10.799999 27 11.200001 L 27 10.299999 C 27 10.299999 28.6 10.299999 28.6 10.299999 L 28.6 15.200001 L 27.200001 15.200001 Z"/>
                </g>
            </g>
        </g>
    </g>
    <path id="path2" fill="#ffffff" stroke="none" d="M 26.9 9.799999 L 15.8 20.9 C 15.5 20 15.4 19.1 15.4 18.1 C 15.4 13.200001 19.299999 9.299999 24.200001 9.299999 C 29.1 9.299999 26.1 9.5 27 9.700001"/>
    <path id="path3" fill="#ffffff" stroke="none" d="M 32.900002 18.200001 C 32.900002 23.1 29 27 24.1 27 C 19.200001 27 22.200001 26.799999 21.299999 26.6 L 32.400002 15.5 C 32.700001 16.4 32.799999 17.299999 32.799999 18.299999"/>
    <path id="path4" fill="#ffffff" stroke="#ffffff" stroke-width="0.5" d="M 5.9 30.799999 L 32.299999 4.400002"/>
    <path id="path5" fill="none" stroke="#ffffff" stroke-width="0.5" d="M 15.7 32.200001 L 42.400002 5.6"/>
    <g id="g4">
        <g id="g5">
            <g id="g6">
                <path id="path6" fill="#ffffff" stroke="none" d="M 52.5 17.799999 L 56.900002 17.799999 L 56.900002 19.299999 L 52.5 19.299999 L 52.5 23.4 L 50.599998 23.4 L 50.599998 13.700001 L 57.400002 13.700001 L 57.400002 15.200001 L 52.5 15.200001 L 52.5 17.700001 Z"/>
                <path id="path7" fill="#ffffff" stroke="none" d="M 64.400002 19.5 C 64.400002 19.9 64.400002 20.200001 64.400002 20.6 C 64.300003 22.200001 63.200001 23.6 60.400002 23.6 C 57.599998 23.6 56.599998 22.200001 56.400002 20.6 C 56.400002 20.200001 56.400002 19.9 56.400002 19.5 L 56.400002 13.799999 L 58.299999 13.799999 L 58.299999 19.700001 C 58.299999 20 58.299999 20.200001 58.299999 20.4 C 58.299999 21.5 59.099998 22.200001 60.299999 22.200001 C 61.5 22.200001 62.200001 21.5 62.299999 20.4 C 62.299999 20.200001 62.299999 20 62.299999 19.700001 L 62.299999 13.799999 L 64.199997 13.799999 L 64.199997 19.5 Z"/>
                <path id="path8" fill="#ffffff" stroke="none" d="M 69.900002 23.4 L 65.900002 16.1 C 65.900002 17.200001 65.900002 18.299999 65.900002 19.1 L 65.900002 23.5 L 64 23.5 L 64 13.799999 L 66.599998 13.799999 L 70.699997 21.299999 C 70.699997 20.299999 70.699997 19.1 70.699997 18.299999 L 70.699997 13.9 L 72.599998 13.9 L 72.599998 23.6 C 72.599998 23.6 70 23.6 70 23.6 Z"/>
                <path id="path9" fill="#ffffff" stroke="none" d="M 81 18.4 C 81 21.4 79.199997 23 77 23.299999 C 76.5 23.299999 76.300003 23.299999 75.800003 23.299999 L 72.5 23.299999 L 72.5 13.6 L 75.800003 13.6 C 76.300003 13.6 76.5 13.6 77 13.6 C 79.199997 13.9 81 15.299999 81 18.299999 Z M 78.900002 18.5 C 78.900002 16.6 78 15.5 76.5 15.299999 C 76.199997 15.299999 75.900002 15.299999 75.5 15.299999 L 74.300003 15.299999 L 74.300003 21.9 L 75.400002 21.9 C 75.800003 21.9 76.099998 21.9 76.400002 21.9 C 77.800003 21.700001 78.800003 20.5 78.800003 18.5 Z"/>
                <path id="path10" fill="#ffffff" stroke="none" d="M 87.300003 23.4 L 80.300003 23.4 L 80.300003 13.700001 L 87.099998 13.700001 L 87.099998 15.200001 L 82.199997 15.200001 L 82.199997 17.700001 L 86.800003 17.700001 L 86.800003 19.200001 L 82.199997 19.200001 L 82.199997 21.700001 L 87.199997 21.700001 L 87.199997 23.200001 Z"/>
                <path id="path11" fill="#ffffff" stroke="none" d="M 88.699997 20.5 L 87.699997 23.4 L 85.599998 23.4 L 89.099998 13.700001 L 91.5 13.700001 L 94.900002 23.4 L 92.800003 23.4 L 91.800003 20.5 L 88.599998 20.5 Z M 89.199997 19 L 91.5 19 L 90.400002 15.4 L 89.300003 19 Z"/>
                <path id="path12" fill="#ffffff" stroke="none" d="M 102.400002 18.4 C 102.400002 21.4 100.599998 23 98.400002 23.299999 C 97.900002 23.299999 97.699997 23.299999 97.199997 23.299999 L 93.900002 23.299999 L 93.900002 13.6 L 97.199997 13.6 C 97.699997 13.6 97.900002 13.6 98.400002 13.6 C 100.599998 13.9 102.400002 15.299999 102.400002 18.299999 Z M 100.400002 18.5 C 100.400002 16.6 99.5 15.5 98 15.299999 C 97.699997 15.299999 97.400002 15.299999 97 15.299999 L 95.800003 15.299999 L 95.800003 21.9 L 96.900002 21.9 C 97.300003 21.9 97.599998 21.9 97.900002 21.9 C 99.300003 21.700001 100.300003 20.5 100.300003 18.5 Z"/>
            </g>
        </g>
        <g id="g7">
            <g id="g8">
                <path id="path13" fill="#ffffff" stroke="none" d="M 117.199997 23.4 L 115.300003 23.4 L 115.300003 18.9 C 115.300003 17.9 115.300003 16.6 115.300003 15.6 C 115.099998 16.6 114.699997 17.9 114.400002 18.9 L 113 23.4 L 110.900002 23.4 L 109.5 18.9 C 109.199997 17.9 108.900002 16.6 108.599998 15.6 C 108.599998 16.6 108.599998 17.9 108.599998 18.9 L 108.599998 23.4 L 106.699997 23.4 L 106.699997 13.700001 L 109.800003 13.700001 L 112 21.6 L 114.199997 13.700001 L 117.199997 13.700001 L 117.199997 23.4 Z"/>
                <path id="path14" fill="#ffffff" stroke="none" d="M 121.400002 20.5 L 120.400002 23.4 L 118.300003 23.4 L 121.800003 13.700001 L 124.199997 13.700001 L 127.599998 23.4 L 125.5 23.4 L 124.5 20.5 L 121.300003 20.5 Z M 121.900002 19 L 124.199997 19 L 123.099998 15.4 L 122 19 Z"/>
                <path id="path15" fill="#ffffff" stroke="none" d="M 135.5 16.6 L 133.5 16.6 C 133.399994 15.6 132.800003 15 131.800003 15 C 130.800003 15 130.399994 15.4 130.399994 16.1 C 130.399994 16.799999 130.899994 17.299999 132.5 17.700001 C 134.600006 18.200001 135.600006 19.200001 135.600006 20.700001 C 135.600006 22.200001 133.899994 23.6 132 23.6 C 130.100006 23.6 128.199997 22.6 128 20.5 L 130 20.5 C 130.199997 21.6 131 22.1 132 22.1 C 133 22.1 133.600006 21.6 133.600006 20.9 C 133.600006 20.200001 133.100006 19.6 131.699997 19.299999 C 129.699997 18.799999 128.5 18.1 128.5 16.4 C 128.5 14.700001 130.100006 13.6 132 13.6 C 133.899994 13.6 135.399994 14.9 135.600006 16.6 Z"/>
                <path id="path16" fill="#ffffff" stroke="none" d="M 141.5 15.200001 L 141.5 23.4 L 139.600006 23.4 L 139.600006 15.200001 L 136.300003 15.200001 L 136.300003 13.700001 L 144.800003 13.700001 L 144.800003 15.200001 L 141.5 15.200001 Z"/>
                <path id="path17" fill="#ffffff" stroke="none" d="M 152.899994 23.4 L 145.899994 23.4 L 145.899994 13.700001 L 152.699997 13.700001 L 152.699997 15.200001 L 147.800003 15.200001 L 147.800003 17.700001 L 152.399994 17.700001 L 152.399994 19.200001 L 147.800003 19.200001 L 147.800003 21.700001 L 152.800003 21.700001 L 152.800003 23.200001 Z"/>
                <path id="path18" fill="#ffffff" stroke="none" d="M 162.199997 23.4 L 160.100006 23.4 C 159.899994 22.700001 159.699997 22.200001 159.600006 21.200001 C 159.5 20.200001 159.100006 19.5 158.300003 19.5 C 158 19.5 157.800003 19.5 157.5 19.5 L 156.399994 19.5 L 156.399994 23.4 L 154.5 23.4 L 154.5 13.700001 L 158 13.700001 C 158.600006 13.700001 158.899994 13.700001 159.399994 13.700001 C 160.800003 13.9 161.899994 14.6 161.899994 16.299999 C 161.899994 18 161.199997 18.299999 160 18.700001 C 161 19.1 161.300003 19.9 161.399994 20.9 C 161.5 22.1 161.699997 22.799999 162.100006 23.299999 Z M 157.800003 18.1 C 158.100006 18.1 158.399994 18.1 158.600006 18.1 C 159.399994 18.1 160 17.700001 160 16.700001 C 160 15.700001 159.5 15.4 158.699997 15.299999 C 158.5 15.299999 158.199997 15.299999 157.899994 15.299999 L 156.5 15.299999 L 156.5 18.1 L 157.800003 18.1 Z"/>
                <path id="path19" fill="#ffffff" stroke="none" d="M 170.5 16.6 L 168.5 16.6 C 168.399994 15.6 167.800003 15 166.800003 15 C 165.800003 15 165.399994 15.4 165.399994 16.1 C 165.399994 16.799999 165.899994 17.299999 167.5 17.700001 C 169.600006 18.200001 170.600006 19.200001 170.600006 20.700001 C 170.600006 22.200001 168.899994 23.6 167 23.6 C 165.100006 23.6 163.199997 22.6 163 20.5 L 165 20.5 C 165.199997 21.6 166 22.1 167 22.1 C 168 22.1 168.600006 21.6 168.600006 20.9 C 168.600006 20.200001 168.100006 19.6 166.699997 19.299999 C 164.699997 18.799999 163.5 18.1 163.5 16.4 C 163.5 14.700001 165.100006 13.6 167 13.6 C 168.899994 13.6 170.399994 14.9 170.600006 16.6 Z"/>
            </g>
        </g>
    </g>
</svg>
